<?xml version="1.0" encoding="UTF-8" standalone="no"?>
<svg
   version="1.2"
   width="423.9267mm"
   height="423.35287mm"
   viewBox="0 0 42392.67 42335.289"
   preserveAspectRatio="xMidYMid"
   fill-rule="evenodd"
   stroke-width="28.222"
   stroke-linejoin="round"
   xml:space="preserve"
   id="svg2019"
   sodipodi:docname="BigCat3b.svg"
   inkscape:version="1.2.2 (732a01da63, 2022-12-09, custom)"
   xmlns:inkscape="http://www.inkscape.org/namespaces/inkscape"
   xmlns:sodipodi="http://sodipodi.sourceforge.net/DTD/sodipodi-0.dtd"
   xmlns="http://www.w3.org/2000/svg"
   xmlns:svg="http://www.w3.org/2000/svg"
   xmlns:ooo="http://xml.openoffice.org/svg/export"><sodipodi:namedview
   id="namedview2021"
   pagecolor="#ffffff"
   bordercolor="#000000"
   borderopacity="0.25"
   inkscape:showpageshadow="2"
   inkscape:pageopacity="0.0"
   inkscape:pagecheckerboard="0"
   inkscape:deskcolor="#d1d1d1"
   inkscape:document-units="mm"
   showgrid="false"
   inkscape:zoom="0.4998289"
   inkscape:cx="794.2718"
   inkscape:cy="800.27385"
   inkscape:window-width="1920"
   inkscape:window-height="1031"
   inkscape:window-x="0"
   inkscape:window-y="25"
   inkscape:window-maximized="1"
   inkscape:current-layer="layer1" />
 <defs
   class="ClipPathGroup"
   id="defs1850">
  <clipPath
   id="presentation_clip_path"
   clipPathUnits="userSpaceOnUse">
   <rect
   x="0"
   y="0"
   width="43893"
   height="43830"
   id="rect1844" />
  </clipPath>
  <clipPath
   id="presentation_clip_path_shrink"
   clipPathUnits="userSpaceOnUse">
   <rect
   x="43"
   y="43"
   width="43806"
   height="43743"
   id="rect1847" />
  </clipPath>
 </defs>
 <defs
   class="TextShapeIndex"
   id="defs1854">
  <g
   ooo:slide="id1"
   ooo:id-list="id3 id4 id5 id6 id7 id8"
   id="g1852" />
 </defs>
 <defs
   class="EmbeddedBulletChars"
   id="defs1886">
  <g
   id="bullet-char-template-57356"
   transform="matrix(4.8828125e-4,0,0,-4.8828125e-4,0,0)">
   <path
   d="M 580,1141 1163,571 580,0 -4,571 Z"
   id="path1856" />
  </g>
  <g
   id="bullet-char-template-57354"
   transform="matrix(4.8828125e-4,0,0,-4.8828125e-4,0,0)">
   <path
   d="M 8,1128 H 1137 V 0 H 8 Z"
   id="path1859" />
  </g>
  <g
   id="bullet-char-template-10146"
   transform="matrix(4.8828125e-4,0,0,-4.8828125e-4,0,0)">
   <path
   d="M 174,0 602,739 174,1481 1456,739 Z M 1358,739 309,1346 659,739 Z"
   id="path1862" />
  </g>
  <g
   id="bullet-char-template-10132"
   transform="matrix(4.8828125e-4,0,0,-4.8828125e-4,0,0)">
   <path
   d="M 2015,739 1276,0 H 717 l 543,543 H 174 v 393 h 1086 l -543,545 h 557 z"
   id="path1865" />
  </g>
  <g
   id="bullet-char-template-10007"
   transform="matrix(4.8828125e-4,0,0,-4.8828125e-4,0,0)">
   <path
   d="m 0,-2 c -7,16 -16,29 -25,39 l 381,530 c -94,256 -141,385 -141,387 0,25 13,38 40,38 9,0 21,-2 34,-5 21,4 42,12 65,25 l 27,-13 111,-251 280,301 64,-25 24,25 c 21,-10 41,-24 62,-43 C 886,937 835,863 770,784 769,783 710,716 594,584 L 774,223 c 0,-27 -21,-55 -63,-84 l 16,-20 C 717,90 699,76 672,76 641,76 570,178 457,381 L 164,-76 c -22,-34 -53,-51 -92,-51 -42,0 -63,17 -64,51 -7,9 -10,24 -10,44 0,9 1,19 2,30 z"
   id="path1868" />
  </g>
  <g
   id="bullet-char-template-10004"
   transform="matrix(4.8828125e-4,0,0,-4.8828125e-4,0,0)">
   <path
   d="M 285,-33 C 182,-33 111,30 74,156 52,228 41,333 41,471 c 0,78 14,145 41,201 34,71 87,106 158,106 53,0 88,-31 106,-94 l 23,-176 c 8,-64 28,-97 59,-98 l 735,706 c 11,11 33,17 66,17 42,0 63,-15 63,-46 V 965 c 0,-36 -10,-64 -30,-84 L 442,47 C 390,-6 338,-33 285,-33 Z"
   id="path1871" />
  </g>
  <g
   id="bullet-char-template-9679"
   transform="matrix(4.8828125e-4,0,0,-4.8828125e-4,0,0)">
   <path
   d="M 813,0 C 632,0 489,54 383,161 276,268 223,411 223,592 c 0,181 53,324 160,431 106,107 249,161 430,161 179,0 323,-54 432,-161 108,-107 162,-251 162,-431 0,-180 -54,-324 -162,-431 C 1136,54 992,0 813,0 Z"
   id="path1874" />
  </g>
  <g
   id="bullet-char-template-8226"
   transform="matrix(4.8828125e-4,0,0,-4.8828125e-4,0,0)">
   <path
   d="m 346,457 c -73,0 -137,26 -191,78 -54,51 -81,114 -81,188 0,73 27,136 81,188 54,52 118,78 191,78 73,0 134,-26 185,-79 51,-51 77,-114 77,-187 0,-75 -25,-137 -76,-188 -50,-52 -112,-78 -186,-78 z"
   id="path1877" />
  </g>
  <g
   id="bullet-char-template-8211"
   transform="matrix(4.8828125e-4,0,0,-4.8828125e-4,0,0)">
   <path
   d="M -4,459 H 1135 V 606 H -4 Z"
   id="path1880" />
  </g>
  <g
   id="bullet-char-template-61548"
   transform="matrix(4.8828125e-4,0,0,-4.8828125e-4,0,0)">
   <path
   d="m 173,740 c 0,163 58,303 173,419 116,115 255,173 419,173 163,0 302,-58 418,-173 116,-116 174,-256 174,-419 0,-163 -58,-303 -174,-418 C 1067,206 928,148 765,148 601,148 462,206 346,322 231,437 173,577 173,740 Z"
   id="path1883" />
  </g>
 </defs>
 
 
<g
   inkscape:groupmode="layer"
   id="layer1"
   inkscape:label="Layer 1"
   transform="translate(-749.92773,-745.71039)"><path
     id="path1895"
     style="display:inline;fill:#d7eef4"
     d="M 14635.023 16140.016 L 13775.024 16668.976 L 13725.002 17231.009 L 15394.977 18604 L 17181.018 19148.98 L 18107.008 18951.008 L 18073.987 18057.987 L 17942.005 17462.985 L 17643.987 17462.985 L 16684.976 18040.986 L 15891.019 18008.016 L 15246.976 17710.98 L 14898.987 17165.018 L 14816.976 16684.996 L 14635.023 16140.016 z M 29203.023 16289 L 28905.987 17248.011 L 28492.007 17909.004 L 27996.017 18074.007 L 27350.992 18040.986 L 26376.012 17445.983 L 26077.994 17396.012 L 25829.999 18256.011 L 25730.987 18983.977 L 26590.986 19000.979 L 28111.979 18752.002 L 29004.999 18421.996 L 29699.014 17710.98 L 30112.994 17066.006 L 29731.983 16437.001 L 29203.023 16289 z "
     transform="translate(-1.5393697e-6,1.1003263e-5)" /><path
     id="path1909"
     style="display:inline;fill:#ffff00"
     d="M 28244.012 16057.024 L 28094.977 16784.99 L 27880.003 17413.014 L 27367.993 17131.997 L 27136.018 16818.011 L 27086.977 16322.021 L 26012.004 17214.99 L 26590.986 17710.98 L 27384.013 18040.986 L 28327.004 17974.995 L 28691.013 17644.989 L 28954.976 17148.017 L 29121.013 16403.98 L 28971.978 16189.006 L 28244.012 16057.024 z M 15709.997 16074.026 L 14750.004 16271.998 L 15032.002 17479.004 L 15726.016 18025.018 L 16768.02 17942.025 L 17380.024 17544.995 L 17628.019 17280.98 L 16883.982 16305.019 L 16520.025 16917.023 L 16254.976 17297 L 15593.983 16966.994 L 15527.992 16536.995 L 15709.997 16074.026 z "
     transform="translate(-1.5393697e-6,1.1003263e-5)" /><path
     fill="#ffbf00"
     stroke="none"
     d="m 25681,19034 1472,-83 1322,-314 1224,-629 562,-1041 -1323,-1042 -959,-66 -826,99 -860,744 z m -12006,-2200 744,1108 1406,893 1819,347 662,-264 -364,-1257 -414,-1323 -1008,-479 -1208,-100 z M 4861,1099 l 1344,366 1343,855 2971,1750 1913,-1140 5414,-1424 4926,-367 4111,644 4355,1188 1995,1303 1140,-611 2483,-1506 2157,-1180 1587,806 855,2409 -203,2076 -2443,3216 -285,1669 163,3582 1913,2971 1609,2239 -2056,-936 -122,326 2564,5576 -1588,-814 937,5740 v 814 l -1669,-1791 1099,6919 -529,-569 -1344,-2443 -40,774 773,4437 122,1831 -1913,-2890 -1303,-1669 v 2076 l 733,3949 -81,1302 -2402,-2564 -3419,-2890 -2483,-448 -977,122 -1384,692 -1018,285 -447,773 -1832,1262 -1588,367 -2198,-285 -1099,-1059 -895,-1058 -1669,-488 -1262,-815 -1140,163 -2442,652 -2524,1913 -2483,2848 h -570 l 1018,-6756 -3175,4071 -366,-163 1384,-6187 -2117,2401 855,-6268 -1677,1506 1270,-6676 -1547,570 1587,-3745 1099,-1954 -651,407 -2035,896 1384,-1873 2361,-3460 122,-3012 41,-2401 L 5106,8996 3274,7408 2378,4844 2907,2523 3681,1506 Z"
     id="path1923"
     style="display:inline"
     transform="translate(-1.5393697e-6,1.1003263e-5)" /><path
     id="path1930"
     style="display:inline"
     d="M 21177.002 747.98415 C 20138.003 779.98412 19101.019 880.01769 18075.02 1048.0175 C 15712.023 1440.0171 13420.021 2225.0247 11292.023 3320.0236 C 10308.024 3829.0231 10495.022 3795.0034 10378.022 3734.0035 C 9263.0234 2941.0043 7601.0009 1830.9988 6347.0022 1216.9995 C 4569.0039 339.00034 2162.025 908.01478 2120.025 4884.0108 C 2111.025 5591.0101 1957.9924 6509.0127 4903.9895 9517.0097 C 5010.9894 9626.0096 5706.0211 13366.996 4794.022 14893.994 C 4758.022 14931.994 1167.0236 20237.989 1169.0236 20409.988 C 1164.0236 20580.988 1315.9889 20735.981 1486.9887 20734.981 C 1654.9885 20743.981 3149.0172 19791.006 3567.0168 19569.006 C 3380.017 20039.006 733.97942 25221.026 749.97941 25431.026 C 770.97939 25675.025 1092.9802 25834.005 1290.98 25677.005 C 1753.9795 25292.006 2216.9885 24906.982 2682.9881 24524.983 C 2670.9881 24665.983 1767.9861 29215.98 1395.9865 31159.978 C 1353.9865 31326.978 1476 31507.007 1642.9998 31540.007 C 1876.9996 31596.007 1911.0009 31510.983 2912.9999 30219.984 C 3028.9997 30086.984 3124.9875 29939.001 3243.9874 29809.001 C 2139.9885 36211.995 2059.01 36096.011 2155.0099 36261.011 C 2227.0099 36418.01 2428.9943 36485.991 2582.9942 36412.991 C 2708.994 36353.991 2619.9809 36424.976 4223.9793 34035.978 C 3858.9796 35868.977 2870.975 40175.023 2939.975 40338.023 C 2996.9749 40499.023 3194.9885 40592.022 3354.9884 40526.022 C 3463.9883 40487.022 3527.0156 40383.997 3587.0156 40290.997 C 3813.0153 39973.998 6555.9781 36125.025 6615.978 36021.025 C 6598.978 36275.025 6196.008 38562.021 6210.0079 38715.021 C 6196.008 38663.021 6205.9811 38686.999 6182.9812 38645 C 6184.9812 38668.999 6189.0064 38693.982 6193.0064 38719.982 C 5978.0066 40046.981 5764.0089 41375.978 5555.0092 42703.977 C 5518.0092 42980.976 5872.0001 43172.986 6087.9999 42973.986 C 6115.9999 42947.986 9498.9885 38589.021 11686.986 37556.022 C 12876.985 37045.023 15078.006 36887.004 15177.006 36885.004 C 15261.006 36924.004 16342.022 37654.011 17608.02 37961.01 C 17648.02 37970.01 17688.996 37986.986 17708.996 38024.986 C 19760.994 41271.982 24167.006 41392.999 26348.004 37970.002 C 27549.003 37659.002 28734.008 36907.018 28734.008 36907.018 C 29679.007 36993.018 31488.016 37197.019 32350.015 37653.019 C 33849.013 38462.018 35677.012 40474.004 36781.01 41760.003 C 37857.009 43023.002 37772 43047.008 37969 43081.008 C 38253 43081.008 38357.006 42876.991 38336.006 42725.991 C 38100.006 41244.992 37266.976 36045.003 37266.976 36045.003 C 38305.975 37515.002 39354.985 38978.992 40395.984 40447.99 C 40600.983 40714.99 41019.99 40514.989 40967.99 40205.99 C 40632.99 38596.991 39789.018 34687.007 39668.018 34060.008 C 40170.017 34816.007 40676.022 35569.02 41177.021 36326.02 C 41373.021 36614.019 41835.98 36417.977 41762.98 36091.977 C 41661.98 35509.978 40896.976 31274.99 40646.976 29837.992 C 41066.976 30311.991 41900.02 31511.987 42094.02 31560.987 C 42267.019 31614.987 42463.992 31492.026 42496.992 31314.026 C 42525.992 31156.026 41863.014 28053.975 41203.014 24547.979 C 41733.014 24973.978 42587.012 25706.975 42681.012 25746.975 C 42902.012 25833.975 43172.002 25623.979 43140.002 25387.979 C 43116.002 25244.979 40435.001 19869.017 40321.001 19594.017 C 40481.001 19677.017 41748.979 20433.998 42175.978 20679.998 C 42508.978 20905.997 42774.982 20600.993 42713.982 20366.994 C 42690.982 20283.994 42969.986 20720.011 39193.99 15038.016 C 38155.991 13759.018 38849.999 9661.9804 38996.999 9529.9805 C 39713.999 8808.9812 40668.01 7729.017 41246.009 6800.0179 C 41823.009 5833.0189 41742.993 5562.0032 41767.993 5172.0036 C 41809.993 1959.0068 40422.994 902.97559 39019.995 887.97561 C 38061.996 871.97563 37130.018 1242.9984 33426.021 3816.9958 C 31780.023 2820.9968 29145.988 1743.025 26211.991 1170.0256 C 23714.994 689.02606 21922.001 747.98415 21177.002 747.98415 z M 22982.008 1421.018 C 22947.008 1428.018 22910.016 1426.9778 22879.016 1445.9777 C 23201.016 1430.9777 23521.989 1488.9851 23842.989 1493.9851 C 23830.989 1497.9851 23820.004 1502.0257 23808.004 1506.0257 C 24746.003 1536.0257 27688.013 1967.9761 30656.01 3185.9749 C 32492.008 3954.9741 32819.998 4283.0188 33358.997 4502.0186 C 33605.997 4598.0185 33567.001 4443.9769 35653.999 3088.9782 C 37725.997 1758.9796 38533.99 1363.0002 39455.989 1589.9999 C 40926.988 1940.9996 41165.012 3885.9916 41112.012 5391.9901 C 41099.012 6555.989 38409.976 9195.9976 38368.976 9249.9976 C 38160.976 10056.997 37817.986 12183.003 38077.986 13840.002 C 38276.985 15084 38691.021 15437.98 38731.021 15506.98 C 38758.021 15546.98 41335.977 19419.021 41355.977 19460.02 C 41290.977 19413.021 39731.998 18474.984 39614.998 18453.984 C 39428.998 18421.984 39239.992 18583.982 39247.992 18772.982 C 39263.992 19048.982 41658.983 23715.006 41890.983 24276.006 C 41763.983 24192.006 40907.984 23423.005 40768.984 23399.005 C 40605.984 23365.005 40433.984 23478.99 40395.984 23638.99 C 40366.984 23736.99 41605 29967.985 41611 29994.985 C 41429 29823.985 40380 28372.987 40210 28311.987 C 40070 28257.987 39899.995 28317.002 39822.995 28445.002 C 39678.995 28652.002 40846.016 34376.991 40847.016 34675.991 C 40833.016 34648.991 39296.989 32320.025 39213.989 32248.026 C 39051.989 32116.026 38776.986 32194.975 38712.986 32395.975 C 38635.986 32660.975 39668.015 37057.026 40007.015 38786.024 C 38994.016 37369.026 37989 35948.986 36978.001 34530.987 C 36878.001 34398.987 36669.991 34376.022 36539.992 34475.021 C 36321.992 34634.021 36323.996 34253.019 37507.995 41620.012 C 34960.997 38617.015 32929.022 36376.006 29462.026 36341.006 C 29609.025 36188.006 30479.026 35502.974 31125.025 34169.975 C 31996.024 32348.977 31985.983 30302.02 31374.984 28592.021 C 31364.984 28565.021 28553.02 20997.984 27936.021 19216.986 C 29047.019 18894.987 30044.021 18164.994 30644.021 17171.995 C 30727.021 17044.995 30706.982 16859.997 30591.982 16758.997 C 28938.984 15324.998 26962.002 14990.984 25901.003 16867.982 C 24664.004 19104.98 25099.019 25609.996 25305.018 28154.994 C 24332.019 28108.994 24677.017 28185.01 23961.018 28268.01 C 23849.018 28285.01 23739.999 28321.978 23625.999 28320.978 C 23368 28311.978 23112.023 28370.979 22853.023 28357.979 C 22668.023 28364.979 22481.985 28355.022 22296.985 28367.022 C 22156.985 28359.022 22020.008 28394 21880.008 28391 C 19499.01 28400 19446.983 27969.992 18543.984 28137.992 C 18733.984 25926.994 18866.987 23410.978 18782.987 21184.98 C 18690.987 19073.982 18515.982 16148.999 16507.984 15616.999 C 15410.985 15316.999 14176.99 15980.976 13306.991 16725.975 C 13185.991 16825.975 13159.995 17016.983 13246.995 17146.983 C 13846.994 18137.982 14841.998 18869.978 15951.997 19188.978 C 15592.998 20270.977 12507.996 28590.981 12497.996 28616.981 C 11882.997 30365.979 11913.006 32453.01 12825.005 34265.008 C 13459.004 35509.007 14276.974 36160.979 14426.974 36313.979 C 14171.974 36324.979 13920.984 36373.999 13668.984 36403.999 C 11688.986 36707.999 10356.983 36883.987 6381.9871 41595.982 C 7575.9859 34195.99 7511.9894 34680.98 7443.9895 34556.98 C 7367.9896 34401.98 7163.0079 34348.983 7013.008 34422.983 C 6869.0082 34492.983 4231.9969 38315.009 3886.9973 38747.009 C 5175.996 32544.015 5242.9751 32626.992 5180.9751 32377.992 C 5120.9752 32177.992 4853.9999 32092.004 4687.0001 32215.004 C 4595.0002 32286.004 4105.9788 33063.007 3027.9799 34661.005 C 3189.9798 33809.006 4100.0146 28699.995 4111.0146 28638.995 C 4170.0145 28320.995 3742.9744 28124 3537.9746 28391 C 3516.9747 28418 2374.0151 29873.989 2280.0152 29971.989 C 2285.0152 29945.989 3533.0189 23714.995 3490.0189 23595.995 C 3443.019 23437.996 3263.9776 23334.024 3104.9778 23378.024 C 2969.9779 23410.024 2125.0168 24168.976 1998.0169 24251.976 C 2016.0169 24200.976 4453.0103 19239.011 4564.0102 19022.011 C 4604.0102 18922.011 4654.0081 18815.976 4641.0081 18704.976 C 4623.0081 18549.976 4475.9786 18419.009 4317.9787 18427.009 C 4165.9789 18420.009 4158.01 18489.981 2938.0112 19185.98 C 2808.0114 19276.98 2658.9866 19336.991 2534.9867 19435.991 C 2561.9867 19381.991 4966.9948 15770.008 5028.9947 15682.008 C 5293.9945 15238.009 5357.9959 15356.015 5606.9957 14665.016 C 6127.9951 13127.017 5888.9781 10891.022 5550.9784 9334.0235 C 5474.9785 9061.0237 5056.0051 8856.0239 3952.0062 7483.0253 C 3558.0066 7003.0258 3023.9892 6272.9823 2830.9894 5679.9829 C 2703.9895 5307.9833 2563.9817 2164.0037 4297.9799 1604.0043 C 5266.979 1281.0046 6319.9902 1627.0125 10248.986 4437.0097 C 10346.986 4507.0096 10484.981 4514.9749 10590.981 4455.9749 C 12188.979 3536.9758 13891.991 2796.0013 15661.989 2279.0018 C 19605.985 1122.003 22594.008 1468.018 22982.008 1421.018 z M 5308.9777 2227.9972 C 5387.9776 2356.9971 7248.0095 4986.9837 7329.0094 5118.9835 C 6118.0106 4562.9841 4904.9846 4013.9809 3693.9858 3458.9815 C 3661.9858 3516.9814 3628.9919 3574.9942 3593.9919 3631.9942 C 4527.991 4245.9936 6305.9881 5365.025 6754.9876 5672.0247 C 5576.9888 5579.0248 4400.0056 5485.9845 3223.0068 5397.9846 C 3209.0068 5464.9845 3197.0191 5531.9879 3191.0191 5599.9878 C 4351.0179 5990.9874 5507.9838 6388.9986 6666.9826 6783.9982 C 6545.9828 6878.9981 5117.982 7858.9985 5023.9821 7922.9985 C 5046.9821 7985.9984 5073.9982 8047.982 5099.9982 8108.9819 C 5862.9974 7945.9821 6626.0247 7785.9831 7388.0239 7621.9832 C 7321.024 8621.9822 7238.0037 9621.026 7167.0038 10621.025 C 8021.0029 9740.0259 9091.979 8356.9758 9528.9785 7217.9769 C 9941.9781 6121.978 9845.9899 5422.008 8730.991 4363.009 C 7807.992 3515.0099 6420.9766 2711.9967 5308.9777 2227.9972 z M 38581.986 2251.9751 C 37082.987 2922.9744 34104.004 4568.0116 34136.004 6211.0099 C 34151.004 7618.0085 35745.979 9644.022 36722.978 10644.021 C 36652.978 9644.022 36567.025 8644.9783 36504.025 7644.9793 C 37265.024 7811.9791 38027.984 7969.9935 38789.983 8133.9933 C 38813.983 8075.9934 38844.02 8019.9987 38862.02 7959.9988 C 38855.02 7951.9988 38839.978 7933.9957 38832.978 7925.9957 C 37194.98 6795.9968 37291.996 6864.9942 37225.996 6806.9942 C 37504.996 6718.9943 39701.979 5959.9988 40700.978 5624.9992 C 40692.978 5556.9992 40681.975 5489.9959 40666.975 5422.996 C 39489.976 5512.9959 38312.975 5608.0208 37135.976 5695.0207 C 37342.976 5556.0209 39945.975 3886.9971 40293.974 3665.9973 C 40260.974 3607.9973 40241.017 3538.0208 40192.017 3491.0209 C 39931.017 3605.0208 37272.005 4819.9953 36562.006 5143.9949 C 36647.006 5003.9951 38490.986 2401.9749 38581.986 2251.9751 z M 25050.15 2599.3957 C 24366.526 2592.7707 23477.516 2717.498 22056.018 3067.9976 C 22022.018 3076.9976 21985.993 3081.9767 21951.993 3071.9767 C 19058.996 2339.9774 18106.983 2215.0057 13534.987 4238.0037 C 13503.987 4250.0037 13478.987 4272.0155 13460.987 4300.0154 C 13588.986 4300.0154 14100.015 4191.9916 14476.015 4138.9917 C 14479.015 4135.9917 14482.989 4129.9846 14485.989 4127.9846 C 14702.988 4103.9846 14915.996 4055.0143 15131.996 4021.0144 C 23152.988 2646.0158 22873.987 3401.0043 26294.984 3640.004 C 26286.984 3642.004 26271.978 3648.0111 26263.978 3651.0111 C 26630.978 3663.0111 30254.001 4311.9878 30423.001 4329.9878 C 30401.001 4231.9879 28274.005 3351.014 26812.006 2919.0144 C 26212.007 2744.0146 25733.774 2606.0207 25050.15 2599.3957 z M 19536.481 4148.1384 C 18356.983 4174.7634 16989.98 4321.5075 16174.981 4776.0071 C 14475.983 5772.0061 12802.018 9499.0122 12642.019 9907.0118 C 12654.018 9953.0117 12688.994 9905.9893 12705.994 9893.9893 C 16235.99 6094.9931 17364.002 5735.977 19161.001 5087.9777 C 19979 4789.978 21772.986 4241.001 21772.986 4241.001 C 21707.986 4215.001 20715.98 4121.5134 19536.481 4148.1384 z M 24024.89 4167.5171 C 23113.766 4162.5171 22353.5 4220.0234 22131 4254.0234 C 22133 4264.0234 22137.992 4282.0237 22139.992 4291.0237 C 26602.987 5537.0225 27674.012 6149.9918 31180.009 9913.9881 C 31197.009 9939.988 31228.007 9942.9967 31257.006 9941.9967 C 30981.007 9289.9973 30268.016 7830.9973 29471.017 6652.9985 C 28290.018 4944.0002 27618.995 4671.9747 26823.995 4455.9749 C 25997.996 4239.9751 24936.014 4172.5171 24024.89 4167.5171 z M 20717.65 6832.2123 C 19357.292 6711.8374 17809.484 7287.2711 17384.985 7600.0208 C 16730.986 8083.0203 16014.977 8994.0052 15730.977 9429.0047 C 20304.973 8491.0057 19366.001 9379.0042 21478.999 9654.0039 C 22945.997 9899.0037 23945.995 9026.9968 25106.994 9007.9969 C 25915.993 9020.9968 27362.987 9289.9828 28159.986 9452.9826 C 27911.986 9083.983 27629.987 8739.0024 27336.987 8404.0027 C 26501.988 7491.0036 26208.001 7436.0066 25790.002 7279.0068 C 24614.003 6852.0072 23037.978 6567.9929 21966.979 7219.9923 C 21603.729 6989.7425 21171.102 6872.3373 20717.65 6832.2123 z M 12031.978 7792.9806 C 11924.978 7762.9806 9889.0173 9667.999 8533.0186 11285.997 C 7245.0199 12848.996 6566.009 13991.995 6358.0092 16015.993 C 6355.0093 16017.993 6350.0022 16022.003 6347.0022 16024.003 C 5844.0027 20510.998 6638.0067 25794 6697.0066 25814 C 6727.0066 25636 6982.001 20239.013 7862.0001 16251.017 C 8407.9996 13760.02 9814.9804 11224.977 12031.978 7792.9806 z M 31858.985 7814.9947 C 35960.981 14455.988 36297.994 14757.997 37191.993 25828.986 C 37201.993 25826.986 37222.009 25822.976 37231.009 25820.976 C 37876.008 21146.981 37683.021 18188.01 37703.021 17846.01 C 37698.021 17874.01 37692.984 17902.018 37687.984 17931.018 C 37682.984 17266.019 37563.01 15790.979 37285.011 14703.98 C 37065.011 13863.981 36797.996 13054.977 35337.998 11286.979 C 34036.999 9739.9808 31984.985 7795.9947 31858.985 7814.9947 z M 20001.466 10256.499 C 19709.435 10258.562 19681.498 10335.976 19499.998 10449.976 C 18771.999 10910.976 18456.016 11039.998 18229.016 11228.998 C 18169.016 11277.998 18201.99 11384.98 18275.99 11397.98 C 19003.989 11496.98 19453.017 11096.002 20134.016 10702.002 C 20351.016 10819.002 20585.993 10897.026 20812.993 10994.026 C 21206.992 11121.025 21092.981 11141.02 21778.98 11037.02 C 21864.98 11019.02 21879.015 10882.003 21797.015 10850.003 C 21770.015 10841.003 21018.011 10615.013 20718.011 10428.014 C 20615.012 10372.014 20517.997 10291.994 20396.997 10280.994 C 20225.498 10263.494 20098.81 10255.812 20001.466 10256.499 z M 23600.988 10295.98 C 23274.988 10330.98 23385.016 10357.98 23047.017 10520.979 C 22700.017 10699.979 22122.997 10864.981 22096.997 10873.981 C 22005.997 10904.981 22028.024 11058.014 22124.024 11063.014 C 22314.024 11089.014 22504.979 11118.017 22695.979 11134.017 C 23004.978 11066.017 23533.999 10844.013 23756.999 10727.013 C 24456.998 11134.013 24900.977 11522.025 25611.976 11424.025 C 25688.976 11413.025 25722.017 11301.976 25661.017 11252.976 C 25434.017 11063.976 24988.011 10863.006 24360.011 10454.007 C 24175.012 10334.007 24147.987 10243.98 23600.988 10295.98 z M 15084.763 10377.009 C 14799.264 10396.509 14348.495 10457.98 13787.995 10426.98 C 13806.995 10430.98 13827.01 10435.984 13847.01 10440.984 C 13211.01 10453.984 12117.989 10561.977 11814.989 11121.976 C 11632.989 11463.976 11681.993 11849.026 12127.993 11965.026 C 13560.992 12331.025 15195.016 10897.012 15390.016 10579.012 C 15490.516 10380.012 15370.263 10357.509 15084.763 10377.009 z M 28575.516 10402.744 C 28487.016 10415.744 28420.021 10454.498 28477.021 10556.998 C 28627.021 10878.998 29847.001 11926.978 31077.999 12035.977 C 31431.999 12056.977 31979.977 12047.986 32129.976 11727.986 C 32233.976 11491.986 32158.018 11015.993 31655.018 10767.993 C 30967.019 10430.993 29844.995 10468.002 28802.996 10403.002 C 28773.996 10402.502 28664.016 10389.744 28575.516 10402.744 z M 17896.995 11104.975 C 17274.996 11153.975 16025.018 11350.003 15649.018 11841.002 C 15393.019 12200.002 15273.987 12866.993 15234.987 13307.993 C 17034.985 13973.992 16587.997 13003.988 17073.996 12265.989 C 17330.996 11866.99 17612.995 11484.974 17896.995 11104.975 z M 25992.005 11128.023 C 26273.005 11504.022 26550.994 11883.015 26806.994 12276.014 C 27245.993 12927.014 26887.011 13998.979 28583.009 13359.979 C 28606.009 13346.979 28640.995 13344.018 28654.995 13318.018 C 28641.995 13150.018 28610.989 12984.015 28586.989 12817.015 C 28583.989 12815.015 28578.981 12809.99 28575.981 12806.99 C 28528.982 12481.99 28382.002 11940.988 28105.002 11724.989 C 27645.003 11354.989 26612.004 11181.022 25992.005 11128.023 z M 19963.019 11508.981 C 19721.019 11521.981 19524.019 11674.989 19328.019 11798.989 C 18557.02 12250.989 18085.008 12429.018 17845.008 12683.018 C 17797.009 12741.018 17844.012 12835.011 17916.012 12840.011 C 18559.011 12921.011 18810.002 12666.013 19272.001 12427.013 C 19316.001 12407.013 19564.982 12319.024 20115.981 11948.024 C 20155.981 11926.024 20195.017 11886.98 20245.017 11901.98 C 20830.016 12019.98 20652.98 12055.999 21368.979 11937.999 C 21453.979 11926.999 21476.016 11800.013 21404.016 11755.013 C 21312.016 11718.013 21208.974 11717.001 21112.974 11693.001 C 20731.975 11622.001 20357.018 11472.981 19963.019 11508.981 z M 23945.515 11534.974 C 23579.984 11492.271 23156.224 11643.751 22718.975 11730.001 C 22642.975 11746.001 22563.978 11750.009 22490.978 11778.009 C 22421.978 11815.009 22427.985 11930.016 22501.985 11957.016 C 22559.985 11973.016 23056.001 12049.977 23139.001 12035.977 C 23581 11959.978 23649.986 11895.999 23714.986 11937.999 C 23813.986 11994.999 24305.985 12317 24463.984 12385 C 24986.984 12587 25214.989 12958.004 25972.988 12866.004 C 26046.988 12863.004 26094.009 12763.014 26043.009 12706.014 C 25762.01 12425.014 25264.989 12255.021 24289.99 11652.022 C 24182.74 11585.022 24067.358 11549.209 23945.515 11534.974 z M 19968.496 12288.624 C 19852.747 12298.249 19739.994 12343.989 19690.994 12490.988 C 19587.994 12782.988 19230.025 13543.026 18966.025 13964.025 C 18705.026 14374.025 18445.022 14429.991 18391.022 14617.99 C 18375.022 14679.99 18430.013 14742.017 18494.013 14739.017 C 19317.012 14750.017 19332.993 14826.008 20439.992 12635.011 C 20704.992 12636.011 20586.98 12722.018 21368.979 12589.019 C 21435.979 12576.019 21471.976 12488.007 21428.976 12433.007 C 21359.976 12337.008 20381.982 12301.99 20263.982 12302.99 C 20202.982 12305.49 20084.246 12278.999 19968.496 12288.624 z M 23596.285 12317.717 C 23385.504 12329.686 23091.479 12357.007 22675.98 12396.007 C 22608.98 12408.007 22530.977 12399.981 22473.977 12442.981 C 22414.977 12493.981 22446.984 12600.978 22521.984 12613.978 C 23265.983 12745.978 23182.984 12670.976 23455.984 12653.976 C 23541.984 12854.976 24065.994 13943.977 24434.994 14427.976 C 24640.994 14696.976 24847.988 14820.982 25431.987 14757.982 C 25492.987 14745.982 25593.982 14650.987 25306.982 14415.987 C 24995.982 14163.987 24785.016 13844.014 24280.016 12723.016 C 24112.016 12384.016 24228.629 12281.811 23596.285 12317.717 z M 20690.985 13296.004 C 20625.985 13323.004 20624.016 13406.022 20601.016 13463.022 C 20527.016 13684.022 20327.017 14481.979 19815.017 15116.978 C 19366.018 15664.977 18870.02 15720.007 18804.02 15739.007 C 18723.02 15773.007 18738 15907.975 18825 15922.975 C 18995 15952.975 19167.011 15969.976 19337.01 15996.976 C 19561.01 16039.976 20100.989 15813.99 20536.989 15289.991 C 21609.988 13851.992 21120.984 13243.004 20690.985 13296.004 z M 23176.259 13317.863 C 23059.588 13297.332 22848.265 13393.519 22768.016 13560.019 C 22450.016 14152.018 23332.006 15604.014 24161.005 15938.013 C 24468.005 16057.013 24368.019 16049.999 25043.019 15952.999 C 25139.019 15949.999 25217.992 15784.984 25015.992 15745.984 C 23808.993 15545.984 23328.999 13600.996 23252.999 13378.996 C 23243.499 13344.496 23215.15 13324.707 23176.259 13317.863 z M 14271.015 13441.99 C 13752.015 13487.99 12994.017 13921.993 12625.017 14204.992 C 12891.017 14405.992 13158.983 14604.984 13446.982 14774.983 C 14209.982 15210.983 14600.991 15447.013 16128.989 14611.014 C 16191.989 14588.014 14993.014 13407.99 14271.015 13441.99 z M 29553.493 13476.458 C 28914.744 13521.397 28148.106 14191.735 27735.981 14623.985 C 29321.979 15447.984 29735 15405.021 31265.998 14229.022 C 31086.998 14083.022 30392.024 13637.007 29818.025 13498.007 C 29733.4 13476.382 29644.743 13470.038 29553.493 13476.458 z M 9887.9747 13520.021 C 9400.9752 13631.021 8959.9852 14267.023 8867.9853 14770.022 C 8831.9853 14989.022 8955.011 15191.015 9083.0109 15357.015 C 9380.0106 15753.015 9859.9815 15995.991 9300.9821 17980.989 C 8882.9825 19457.988 8563.998 20205.014 9134.9974 21542.012 C 9657.9969 22737.011 10742.993 24361.007 10857.993 24387.007 C 10726.993 23903.007 10261.984 22618.996 10288.984 21670.997 C 10316.984 19973.998 10917.021 19003.005 10902.021 16804.007 C 10906.021 16091.008 11016.006 15376 10937.006 14663.001 C 10810.006 13628.002 10189.974 13447.021 9887.9747 13520.021 z M 33958.134 13541.57 C 33588.103 13490.43 33293.769 13759.491 33167.019 13982.99 C 32774.02 14657.99 32974.012 15805.009 32988.012 16784.008 C 32994.012 19335.006 33830.011 20779.009 33549.011 22425.007 C 33389.011 23349.007 33073.019 24231.011 33036.019 24401.011 L 33068.989 24404.99 C 33312.989 24118.99 34911.974 21803.02 35045.974 20542.022 C 35159.974 19201.023 34445.999 18077.973 34346.999 16782.975 C 34280.999 15495.976 34789.013 15690.985 35004.013 15033.986 C 35116.013 14698.986 34777.996 14041.981 34349.996 13712.981 C 34213.246 13611.231 34081.477 13558.617 33958.134 13541.57 z M 12311.548 15330.66 C 11951.923 15348.191 11636.751 15584.233 11447.001 16064.982 C 10819.002 17690.981 12028.993 18578.992 13585.992 19304.991 C 14127.991 19550.991 14686.986 19760.976 15254.986 19937.976 C 15256.986 19925.976 15260.014 19900.987 15262.014 19888.987 C 14669.014 19297.987 13447.014 18065.011 12870.015 17453.011 C 12389.015 16909.012 13713.997 15737.023 12682.998 15385.024 C 12556.248 15343.274 12431.423 15324.816 12311.548 15330.66 z M 31708.452 15372.931 C 31265.062 15286.822 30758.264 15535.258 30801.014 15944.008 C 30832.014 16353.007 31089.986 16704.981 31129.986 17112.98 C 31156.986 17396.98 31232.008 17305.007 28657.01 19888.005 C 28633.01 19906.005 28631.004 19935.987 28626.004 19962.987 C 29589.003 19720.987 31823.003 18797.021 32382.002 17777.022 C 32752.002 17053.023 32600.013 16043.001 32108.014 15577.002 C 31997.014 15467.502 31856.249 15401.635 31708.452 15372.931 z M 15598.014 16223.991 C 15207.014 16756.99 15556.99 17487.994 16128.989 17527.994 C 16644.989 17578.994 17045.002 17073.024 16937.002 16561.024 C 17171.002 16763.024 17360.022 17016.003 17494.022 17294.003 C 16098.024 18514.002 14920.98 17880.016 14961.98 16419.017 C 15167.98 16335.018 15379.014 16261.991 15598.014 16223.991 z M 28293.001 16249.984 C 28512.001 16287.984 28723.002 16359.995 28928.001 16442.995 C 28976.001 17933.994 27754.992 18519.998 26396.993 17316.999 C 26531.993 17039.999 26720.98 16788.002 26952.98 16585.002 C 26796.98 17301.001 27591.988 17835.985 28139.987 17405.986 C 28425.987 17189.986 28601.001 16722.983 28293.001 16249.984 z M 14596.99 16602.986 C 14698.99 18423.984 16305.994 18788.982 17637.993 17650.984 C 17761.993 18005.983 17841.02 18373.992 17907.02 18743.992 C 16221.022 18870.992 14790.984 18204.978 13947.985 17038.98 C 14150.985 16875.98 14369.99 16730.985 14596.99 16602.986 z M 29294.026 16627.015 C 29520.025 16757.015 29737.978 16901.009 29942.978 17063.009 C 29118.979 18207.008 27732.981 18889 25978.982 18772 C 26041.982 18400.001 26127.007 18031.995 26251.007 17675.995 C 27649.006 18853.994 29189.026 18391.013 29294.026 16627.015 z M 11828.011 18458.014 C 11452.012 20222.013 11330.002 22855.008 13073 22331.008 C 13730.999 22124.008 14444.01 21627.981 14650.01 21463.981 C 12074.012 20742.982 12449.011 20186.013 11828.011 18458.014 z M 32060.988 18481.992 C 31457.989 20186.991 31791.003 20780.993 29241.005 21488.992 C 29624.005 21798.992 30829.008 22576.018 31499.007 22413.019 C 32583.006 22150.019 32308.988 19580.991 32060.988 18481.992 z M 16592.992 19336.979 C 17056.991 19408.979 17530.023 19423.999 17998.022 19389.999 C 18390.022 22741.996 17947.985 27294.989 17925.985 27861.988 C 17920.985 27841.988 17915.981 27821.992 17911.981 27801.992 C 17919.981 27949.992 17895.006 28095.999 17885.006 28242.999 C 17861.006 28471.998 17855.999 28706.024 17780 28925.024 C 17719 29120.024 17723.989 29345.006 17828.989 29524.006 C 18199.988 30139.005 19275.984 29654.017 19907.983 30278.017 C 20800.982 31255.016 21476.014 32064.99 20752.015 33482.989 C 20695.015 33646.989 20689.015 34771.99 21256.015 35293.99 C 20402.016 38169.987 17706.012 37871.015 15336.014 36198.017 C 13988.016 35238.018 13084.021 33838.975 12807.021 32113.977 C 12494.022 30098.979 13149.016 28720.994 13579.016 27573.996 C 14597.015 24832.998 15598.993 22086.976 16592.992 19336.979 z M 27299.005 19363.024 C 28424.004 22477.021 29556.986 25588.006 30719.985 28687.003 C 31957.984 31995.999 30597.01 35605.991 27085.013 37030.989 C 24911.015 37917.989 23341.013 37575.99 22620.014 35290.992 C 23213.014 34763.993 23194.021 33622.981 23135.022 33491.981 C 22748.022 32737.981 22713.021 32020.983 23155.02 31284.984 C 23336.02 30978.984 24016.006 30093.985 24366.006 29994.985 C 24915.005 29817.985 25651.984 29964.996 25995.984 29589.997 C 26344.984 29219.997 25986.985 28784.024 25975.985 28290.024 C 25972.985 28298.024 25966.996 28314.976 25963.996 28323.976 C 25714.996 24354.98 25587.004 23578.022 25881.004 19417.026 C 26354.003 19444.026 26830.006 19436.024 27299.005 19363.024 z M 13337.015 24512.012 C 11975.016 25006.011 11728.985 25027.979 11239.985 25014.979 C 10739.986 25005.979 10239.009 24926.978 9738.0097 24977.978 C 9074.0104 25047.978 8812.0169 25450.985 8815.0169 25717.985 C 8805.0169 26129.984 9247.976 26552.98 9531.9758 26899.98 C 9946.9753 27408.979 10839.005 28016.018 11387.005 28353.018 C 11317.005 27894.018 11237.983 27424.009 11316.983 26961.01 C 11359.983 26650.01 11449.998 26253.979 11748.998 26153.979 C 12257.998 25976.979 12717.015 26437.01 13337.015 24512.012 z M 30554 24541.002 C 31257 26664 31705.024 25892.011 32247.024 26232.01 C 32744.023 26592.01 32603.977 27774.014 32502.977 28376.014 C 33808.976 27620.015 34690.018 26658.984 34961.018 26147.984 C 35125.018 25835.985 35122.001 25603.02 34905.001 25343.021 C 34550.001 24927.021 33864.987 24982.977 33424.988 24997.977 C 32048.989 25064.977 32317.999 25139.002 30554 24541.002 z M 6244.9929 26190.979 C 5693.9934 26096.979 5123.9808 26414.978 5043.9809 27332.977 C 5009.9809 27784.976 5089.9882 28237.986 5222.9881 28667.986 C 5949.9874 30961.983 7086.025 29934.976 8322.0238 30191.975 C 9441.0226 30406.975 10512.024 32455.026 11087.023 33444.025 C 12445.022 33164.025 11836.02 30295.998 11295.021 29643.998 C 10760.021 28975.999 9746 28708.01 9038.0007 28211.011 C 8058.0017 27506.012 7183.992 26343.979 6244.9929 26190.979 z M 37615.016 26221.003 C 37123.017 26319.003 36718.019 26639.982 36342.019 26953.982 C 35666.02 27525.981 35145.008 28108.019 34486.008 28464.019 C 33724.009 28882.018 32920.995 29164.013 32501.995 29797.012 C 31998.996 30557.012 31524.992 33215.024 32786.991 33464.024 C 32814.991 33464.024 32796.981 33476.018 33077.981 33003.018 C 35285.978 29253.022 35695.999 30370.989 37336.997 30213.989 C 37732.997 30168.99 38115.991 30020.001 38538.991 29043.002 C 39331.99 27128.003 38562.015 26031.003 37615.016 26221.003 z M 14872.167 29864.502 C 14641.448 29836.752 14458.274 30063.236 14504.024 30273.986 C 14543.024 30419.986 14671.98 30511.985 14756.98 30629.985 C 16206.978 32465.983 18843.003 32707.004 18916.003 32682.004 C 19188.002 32604.004 19209.006 32123.01 18893.007 32041.01 C 17644.008 31715.01 17305.009 31680.003 16461.01 31207.004 C 15661.011 30768.004 15322.997 30196.975 15111.997 29986.975 C 15031.247 29911.225 14949.073 29873.752 14872.167 29864.502 z M 28488.7 29915.093 C 28296.56 29932.859 28176.003 30137.256 28011.003 30327.006 C 27120.004 31432.005 25891.003 31760.982 24554.005 32070.982 C 24058.005 32197.982 24190.978 32781.984 24620.977 32759.984 C 27004.975 32271.984 27934.984 31539.011 28629.983 30657.012 C 28695.983 30568.012 28786.984 30500.009 28834.984 30398.009 C 28917.984 30252.009 28844.996 30053.976 28708.997 29966.976 C 28624.747 29923.976 28552.747 29909.171 28488.7 29915.093 z M 29148.66 31371.077 C 29079.957 31395.248 29010.997 31450.749 28950.997 31548.998 C 27875.998 33008.997 28172.984 32941.024 25525.987 33558.023 C 24546.988 33765.023 24698.009 33615.999 24400.009 33621.999 C 24186.009 33633.999 24068.009 33947.014 24232.009 34091.014 C 24576.009 34469.013 26121.005 33991.016 26721.004 33846.016 C 27837.003 33560.016 28216.982 33493.996 29005.981 32465.997 C 29033.981 32429.997 29477.979 31809.005 29512.979 31691.005 C 29558.729 31508.005 29354.769 31298.561 29148.66 31371.077 z M 14365.944 31375.211 C 14164.991 31313.523 13971.512 31516.771 14012.012 31693.021 C 14044.012 31813.021 14476.979 32428.987 14608.979 32588.987 C 15355.978 33539.986 15816.009 33601.984 16837.008 33861.984 C 17970.007 34136.984 18516.998 34331.981 19089.997 34200.981 C 19461.997 34150.981 19424.003 33727.01 19195.004 33647.01 C 19067.004 33598.01 18935.001 33668.985 18805.002 33673.985 C 18322.002 33695.985 16133.021 33160.017 15720.022 32892.017 C 15166.022 32530.018 14727.023 31760.976 14561.023 31535.976 C 14500.773 31445.726 14432.929 31395.773 14365.944 31375.211 z M 29540.987 33317.986 C 29418.987 33353.986 29357.018 33471 29283.018 33564.999 C 28617.019 34500.999 28117.975 34800.981 27143.976 35060.981 C 25312.978 35583.98 24891.994 35216.017 24733.994 35190.017 C 24439.994 35150.017 23996.022 35836.012 25396.021 35905.012 C 26274.02 35915.012 28087.009 35595.992 29033.008 34729.993 C 29241.008 34533.993 29942.99 33762.98 29910.99 33548.98 C 29884.99 33388.98 29702.987 33239.986 29540.987 33317.986 z M 14722.977 33523.297 C 14625.071 33489.64 14531.758 33536.259 14428.008 33704.009 C 14383.008 33796.009 14401.987 33911.987 14468.987 33989.986 C 15156.986 34897.986 15537.987 35457.975 17122.985 35869.975 C 17805.985 36055.975 18753.005 36238.017 19437.004 36067.017 C 19581.004 36018.017 19748.977 35983.976 19839.977 35849.976 C 19973.977 35673.976 19789.996 35386.992 19576.996 35421.992 C 19342.996 35467.992 19311.983 35633.987 18338.983 35538.988 C 17712.984 35460.988 16696.001 35224.016 16134.002 34891.017 C 15351.753 34447.767 15016.695 33624.265 14722.977 33523.297 z M 21968.013 35478.991 C 22141.012 35538.991 22511.008 38240.026 25431.005 38131.026 C 23641.007 40368.023 20466.002 40492.991 18560.004 38109.993 C 20263.002 38157.993 21340.022 37159.979 21865.022 35527.98 C 21899.021 35509.98 21932.013 35491.991 21968.013 35478.991 z "
     transform="translate(-1.5393697e-6,1.1003263e-5)" /></g></svg>
